# xmcd
#
# Track frame offsets:
#	150
#	15620
#	36198
#	58769
#	75695
#	94962
#	118775
#	133833
#	153193
#
# Disc length: 2302 seconds
#
# Revision: 0
# Processed by: cddbd v1.5.2PL0 Copyright (c) Steve Scherf et al.
# Submitted via: EZCDAudioConverter 1.3.4.1
#
DISCID=7208fc09
DTITLE=Molly Parden - Time is Medicine
DYEAR=2011
DGENRE=
TTITLE0=Lord Have Mercy
TTITLE1=Please Baby, Please
TTITLE2=Time is Medicine
TTITLE3=The Gambler (western song)
TTITLE4=Travellin' Souls
TTITLE5=A Song For My Mother
TTITLE6=Every Day You Love Me
TTITLE7=Things Change
TTITLE8=The Story of a Man
EXTD=
EXTT0=
EXTT1=
EXTT2=
EXTT3=
EXTT4=
EXTT5=
EXTT6=
EXTT7=
EXTT8=
PLAYORDER=
